<?xml version="1.0" encoding="utf-8"?>
<!-- Generator: Adobe Illustrator 24.0.1, SVG Export Plug-In . SVG Version: 6.00 Build 0)  -->
<svg version="1.1" xmlns="http://www.w3.org/2000/svg" xmlns:xlink="http://www.w3.org/1999/xlink" x="0px" y="0px"
	 viewBox="0 0 128 128" style="enable-background:new 0 0 128 128;" xml:space="preserve">
<g id="Grid_1_" style="display:none;">
	<g id="Grid" style="display:inline;">
		<line style="fill:none;stroke:#00A651;stroke-width:0.1;" x1="128" y1="-100" x2="128" y2="228"/>
		<line style="fill:none;stroke:#00A651;stroke-width:0.1;" x1="120" y1="-100" x2="120" y2="228"/>
		<line style="fill:none;stroke:#00A651;stroke-width:0.1;" x1="120" y1="-100" x2="120" y2="228"/>
		<line style="fill:none;stroke:#00A651;stroke-width:0.1;" x1="112" y1="-100" x2="112" y2="228"/>
		<line style="fill:none;stroke:#00A651;stroke-width:0.1;" x1="112" y1="-100" x2="112" y2="228"/>
		<line style="fill:none;stroke:#00A651;stroke-width:0.1;" x1="104" y1="-100" x2="104" y2="228"/>
		<line style="fill:none;stroke:#00A651;stroke-width:0.1;" x1="104" y1="-100" x2="104" y2="228"/>
		<line style="fill:none;stroke:#00A651;stroke-width:0.1;" x1="96" y1="-100" x2="96" y2="228"/>
		<line style="fill:none;stroke:#00A651;stroke-width:0.1;" x1="96" y1="-100" x2="96" y2="228"/>
		<line style="fill:none;stroke:#00A651;stroke-width:0.1;" x1="88" y1="-100" x2="88" y2="228"/>
		<line style="fill:none;stroke:#00A651;stroke-width:0.1;" x1="88" y1="-100" x2="88" y2="228"/>
		<line style="fill:none;stroke:#00A651;stroke-width:0.1;" x1="80" y1="-100" x2="80" y2="228"/>
		<line style="fill:none;stroke:#00A651;stroke-width:0.1;" x1="80" y1="-100" x2="80" y2="228"/>
		<line style="fill:none;stroke:#00A651;stroke-width:0.1;" x1="72" y1="-100" x2="72" y2="228"/>
		<line style="fill:none;stroke:#00A651;stroke-width:0.1;" x1="72" y1="-100" x2="72" y2="228"/>
		<line style="fill:none;stroke:#00A651;stroke-width:0.1;" x1="64" y1="-100" x2="64" y2="228"/>
		<line style="fill:none;stroke:#00A651;stroke-width:0.1;" x1="64" y1="-100" x2="64" y2="228"/>
		<line style="fill:none;stroke:#00A651;stroke-width:0.1;" x1="56" y1="-100" x2="56" y2="228"/>
		<line style="fill:none;stroke:#00A651;stroke-width:0.1;" x1="56" y1="-100" x2="56" y2="228"/>
		<line style="fill:none;stroke:#00A651;stroke-width:0.1;" x1="48" y1="-100" x2="48" y2="228"/>
		<line style="fill:none;stroke:#00A651;stroke-width:0.1;" x1="48" y1="-100" x2="48" y2="228"/>
		<line style="fill:none;stroke:#00A651;stroke-width:0.1;" x1="40" y1="-100" x2="40" y2="228"/>
		<line style="fill:none;stroke:#00A651;stroke-width:0.1;" x1="40" y1="-100" x2="40" y2="228"/>
		<line style="fill:none;stroke:#00A651;stroke-width:0.1;" x1="32" y1="-100" x2="32" y2="228"/>
		<line style="fill:none;stroke:#00A651;stroke-width:0.1;" x1="32" y1="-100" x2="32" y2="228"/>
		<line style="fill:none;stroke:#00A651;stroke-width:0.1;" x1="24" y1="-100" x2="24" y2="228"/>
		<line style="fill:none;stroke:#00A651;stroke-width:0.1;" x1="24" y1="-100" x2="24" y2="228"/>
		<line style="fill:none;stroke:#00A651;stroke-width:0.1;" x1="16" y1="-100" x2="16" y2="228"/>
		<line style="fill:none;stroke:#00A651;stroke-width:0.1;" x1="16" y1="-100" x2="16" y2="228"/>
		<line style="fill:none;stroke:#00A651;stroke-width:0.1;" x1="8" y1="-100" x2="8" y2="228"/>
		<line style="fill:none;stroke:#00A651;stroke-width:0.1;" x1="8" y1="-100" x2="8" y2="228"/>
		<line style="fill:none;stroke:#00A651;stroke-width:0.1;" x1="0" y1="-100" x2="0" y2="228"/>
		<line style="fill:none;stroke:#00A651;stroke-width:0.1;" x1="-100" y1="128" x2="228" y2="128"/>
		<line style="fill:none;stroke:#00A651;stroke-width:0.1;" x1="-100" y1="120" x2="228" y2="120"/>
		<line style="fill:none;stroke:#00A651;stroke-width:0.1;" x1="-100" y1="120" x2="228" y2="120"/>
		<line style="fill:none;stroke:#00A651;stroke-width:0.1;" x1="-100" y1="112" x2="228" y2="112"/>
		<line style="fill:none;stroke:#00A651;stroke-width:0.1;" x1="-100" y1="112" x2="228" y2="112"/>
		<line style="fill:none;stroke:#00A651;stroke-width:0.1;" x1="-100" y1="104" x2="228" y2="104"/>
		<line style="fill:none;stroke:#00A651;stroke-width:0.1;" x1="-100" y1="104" x2="228" y2="104"/>
		<line style="fill:none;stroke:#00A651;stroke-width:0.1;" x1="-100" y1="96" x2="228" y2="96"/>
		<line style="fill:none;stroke:#00A651;stroke-width:0.1;" x1="-100" y1="96" x2="228" y2="96"/>
		<line style="fill:none;stroke:#00A651;stroke-width:0.1;" x1="-100" y1="88" x2="228" y2="88"/>
		<line style="fill:none;stroke:#00A651;stroke-width:0.1;" x1="-100" y1="88" x2="228" y2="88"/>
		<line style="fill:none;stroke:#00A651;stroke-width:0.1;" x1="-100" y1="80" x2="228" y2="80"/>
		<line style="fill:none;stroke:#00A651;stroke-width:0.1;" x1="-100" y1="80" x2="228" y2="80"/>
		<line style="fill:none;stroke:#00A651;stroke-width:0.1;" x1="-100" y1="72" x2="228" y2="72"/>
		<line style="fill:none;stroke:#00A651;stroke-width:0.1;" x1="-100" y1="72" x2="228" y2="72"/>
		<line style="fill:none;stroke:#00A651;stroke-width:0.1;" x1="-100" y1="64" x2="228" y2="64"/>
		<line style="fill:none;stroke:#00A651;stroke-width:0.1;" x1="-100" y1="64" x2="228" y2="64"/>
		<line style="fill:none;stroke:#00A651;stroke-width:0.1;" x1="-100" y1="56" x2="228" y2="56"/>
		<line style="fill:none;stroke:#00A651;stroke-width:0.1;" x1="-100" y1="56" x2="228" y2="56"/>
		<line style="fill:none;stroke:#00A651;stroke-width:0.1;" x1="-100" y1="48" x2="228" y2="48"/>
		<line style="fill:none;stroke:#00A651;stroke-width:0.1;" x1="-100" y1="48" x2="228" y2="48"/>
		<line style="fill:none;stroke:#00A651;stroke-width:0.1;" x1="-100" y1="40" x2="228" y2="40"/>
		<line style="fill:none;stroke:#00A651;stroke-width:0.1;" x1="-100" y1="40" x2="228" y2="40"/>
		<line style="fill:none;stroke:#00A651;stroke-width:0.1;" x1="-100" y1="32" x2="228" y2="32"/>
		<line style="fill:none;stroke:#00A651;stroke-width:0.1;" x1="-100" y1="32" x2="228" y2="32"/>
		<line style="fill:none;stroke:#00A651;stroke-width:0.1;" x1="-100" y1="24" x2="228" y2="24"/>
		<line style="fill:none;stroke:#00A651;stroke-width:0.1;" x1="-100" y1="24" x2="228" y2="24"/>
		<line style="fill:none;stroke:#00A651;stroke-width:0.1;" x1="-100" y1="16" x2="228" y2="16"/>
		<line style="fill:none;stroke:#00A651;stroke-width:0.1;" x1="-100" y1="16" x2="228" y2="16"/>
		<line style="fill:none;stroke:#00A651;stroke-width:0.1;" x1="-100" y1="8" x2="228" y2="8"/>
		<line style="fill:none;stroke:#00A651;stroke-width:0.1;" x1="-100" y1="8" x2="228" y2="8"/>
		<line style="fill:none;stroke:#00A651;stroke-width:0.1;" x1="-100" y1="0" x2="228" y2="0"/>
		<path id="Border" style="fill:#BBBDBF;" d="M120,0H8H0v8v112v8h8h112h8v-8V8V0H120z M120,120H8V8h112V120z"/>
	</g>
</g>
<g id="Icon">
	<g id="_x30_4_1_">
		<g id="_x30_4">
			
				<ellipse transform="matrix(0.9685 -0.2489 0.2489 0.9685 -13.9134 17.9403)" style="fill:#007EC2;" cx="64" cy="64" rx="56" ry="56"/>
			<defs>
				<filter id="Adobe_OpacityMaskFilter" filterUnits="userSpaceOnUse" x="11.7" y="45.7" width="89.5" height="74.3">
					<feColorMatrix  type="matrix" values="1 0 0 0 0  0 1 0 0 0  0 0 1 0 0  0 0 0 1 0"/>
				</filter>
			</defs>
			<mask maskUnits="userSpaceOnUse" x="11.7" y="45.7" width="89.5" height="74.3" id="SVGID_1_">
				<g style="filter:url(#Adobe_OpacityMaskFilter);">
					
						<linearGradient id="SVGID_2_" gradientUnits="userSpaceOnUse" x1="-1118.3727" y1="3832.3328" x2="-1118.3727" y2="3956.0762" gradientTransform="matrix(-1.1478 -0.6627 -0.5351 0.9269 851.0524 -4260.999)">
						<stop  offset="0.5483" style="stop-color:#8A8A8A"/>
						<stop  offset="0.5952" style="stop-color:#828282"/>
						<stop  offset="0.6684" style="stop-color:#6C6C6C"/>
						<stop  offset="0.7586" style="stop-color:#484848"/>
						<stop  offset="0.8616" style="stop-color:#161616"/>
						<stop  offset="0.9026" style="stop-color:#000000"/>
					</linearGradient>
					<polygon style="fill:url(#SVGID_2_);" points="120.1,53.1 53.9,167.8 -18.2,126.2 48,11.5 					"/>
				</g>
			</mask>
			<path style="mask:url(#SVGID_1_);fill:#00438C;" d="M92.9,72.3l8.3,2.3l-25.5,44.1C71.9,119.6,68,120,64,120
				c-6.9,0-13.6-1.3-19.7-3.6L70,71.9l1.5,0.8l1.3-2.3l20.2-22.1L92.9,72.3z M60,62.3l-4.6-10.6l-8.1-5.9l-10.1,1.6l-7.9,5.8
				L11.7,83.9c4.7,12.4,13.6,22.6,25,29l22-38.1L60,62.3z"/>
			<g id="_x30_4_2_">
				<path style="fill:#FFFFFF;" d="M95.1,45h-3.3L70,71.9l1.3,2.7h20v9.1h3.8v-9.1h6.1v-3.5h-6.1V45z M75.2,71.1l16.1-20v20H75.2z"
					/>
				<path style="fill:#FFFFFF;" d="M44,44.1c-9.6,0-17.5,8.9-17.5,19.9S34.4,83.9,44,83.9c9.6,0,17.5-8.9,17.5-19.9
					S53.7,44.1,44,44.1z M57.6,64c0,8.8-6.1,16-13.5,16c-7.5,0-13.5-7.2-13.5-16S36.6,48,44,48C51.5,48,57.6,55.2,57.6,64z"/>
			</g>
		</g>
	</g>
</g>
</svg>
