<?xml version="1.0" encoding="utf-8"?>
<!-- Generator: Adobe Illustrator 24.0.1, SVG Export Plug-In . SVG Version: 6.00 Build 0)  -->
<svg version="1.1" xmlns="http://www.w3.org/2000/svg" xmlns:xlink="http://www.w3.org/1999/xlink" x="0px" y="0px"
	 viewBox="0 0 128 128" style="enable-background:new 0 0 128 128;" xml:space="preserve">
<g id="Grid_1_" style="display:none;">
	<g id="Grid" style="display:inline;">
		<line style="fill:none;stroke:#00A651;stroke-width:0.1;" x1="128" y1="-100" x2="128" y2="228"/>
		<line style="fill:none;stroke:#00A651;stroke-width:0.1;" x1="120" y1="-100" x2="120" y2="228"/>
		<line style="fill:none;stroke:#00A651;stroke-width:0.1;" x1="120" y1="-100" x2="120" y2="228"/>
		<line style="fill:none;stroke:#00A651;stroke-width:0.1;" x1="112" y1="-100" x2="112" y2="228"/>
		<line style="fill:none;stroke:#00A651;stroke-width:0.1;" x1="112" y1="-100" x2="112" y2="228"/>
		<line style="fill:none;stroke:#00A651;stroke-width:0.1;" x1="104" y1="-100" x2="104" y2="228"/>
		<line style="fill:none;stroke:#00A651;stroke-width:0.1;" x1="104" y1="-100" x2="104" y2="228"/>
		<line style="fill:none;stroke:#00A651;stroke-width:0.1;" x1="96" y1="-100" x2="96" y2="228"/>
		<line style="fill:none;stroke:#00A651;stroke-width:0.1;" x1="96" y1="-100" x2="96" y2="228"/>
		<line style="fill:none;stroke:#00A651;stroke-width:0.1;" x1="88" y1="-100" x2="88" y2="228"/>
		<line style="fill:none;stroke:#00A651;stroke-width:0.1;" x1="88" y1="-100" x2="88" y2="228"/>
		<line style="fill:none;stroke:#00A651;stroke-width:0.1;" x1="80" y1="-100" x2="80" y2="228"/>
		<line style="fill:none;stroke:#00A651;stroke-width:0.1;" x1="80" y1="-100" x2="80" y2="228"/>
		<line style="fill:none;stroke:#00A651;stroke-width:0.1;" x1="72" y1="-100" x2="72" y2="228"/>
		<line style="fill:none;stroke:#00A651;stroke-width:0.1;" x1="72" y1="-100" x2="72" y2="228"/>
		<line style="fill:none;stroke:#00A651;stroke-width:0.1;" x1="64" y1="-100" x2="64" y2="228"/>
		<line style="fill:none;stroke:#00A651;stroke-width:0.1;" x1="64" y1="-100" x2="64" y2="228"/>
		<line style="fill:none;stroke:#00A651;stroke-width:0.1;" x1="56" y1="-100" x2="56" y2="228"/>
		<line style="fill:none;stroke:#00A651;stroke-width:0.1;" x1="56" y1="-100" x2="56" y2="228"/>
		<line style="fill:none;stroke:#00A651;stroke-width:0.1;" x1="48" y1="-100" x2="48" y2="228"/>
		<line style="fill:none;stroke:#00A651;stroke-width:0.1;" x1="48" y1="-100" x2="48" y2="228"/>
		<line style="fill:none;stroke:#00A651;stroke-width:0.1;" x1="40" y1="-100" x2="40" y2="228"/>
		<line style="fill:none;stroke:#00A651;stroke-width:0.1;" x1="40" y1="-100" x2="40" y2="228"/>
		<line style="fill:none;stroke:#00A651;stroke-width:0.1;" x1="32" y1="-100" x2="32" y2="228"/>
		<line style="fill:none;stroke:#00A651;stroke-width:0.1;" x1="32" y1="-100" x2="32" y2="228"/>
		<line style="fill:none;stroke:#00A651;stroke-width:0.1;" x1="24" y1="-100" x2="24" y2="228"/>
		<line style="fill:none;stroke:#00A651;stroke-width:0.1;" x1="24" y1="-100" x2="24" y2="228"/>
		<line style="fill:none;stroke:#00A651;stroke-width:0.1;" x1="16" y1="-100" x2="16" y2="228"/>
		<line style="fill:none;stroke:#00A651;stroke-width:0.1;" x1="16" y1="-100" x2="16" y2="228"/>
		<line style="fill:none;stroke:#00A651;stroke-width:0.1;" x1="8" y1="-100" x2="8" y2="228"/>
		<line style="fill:none;stroke:#00A651;stroke-width:0.1;" x1="8" y1="-100" x2="8" y2="228"/>
		<line style="fill:none;stroke:#00A651;stroke-width:0.1;" x1="0" y1="-100" x2="0" y2="228"/>
		<line style="fill:none;stroke:#00A651;stroke-width:0.1;" x1="-100" y1="128" x2="228" y2="128"/>
		<line style="fill:none;stroke:#00A651;stroke-width:0.1;" x1="-100" y1="120" x2="228" y2="120"/>
		<line style="fill:none;stroke:#00A651;stroke-width:0.1;" x1="-100" y1="120" x2="228" y2="120"/>
		<line style="fill:none;stroke:#00A651;stroke-width:0.1;" x1="-100" y1="112" x2="228" y2="112"/>
		<line style="fill:none;stroke:#00A651;stroke-width:0.1;" x1="-100" y1="112" x2="228" y2="112"/>
		<line style="fill:none;stroke:#00A651;stroke-width:0.1;" x1="-100" y1="104" x2="228" y2="104"/>
		<line style="fill:none;stroke:#00A651;stroke-width:0.1;" x1="-100" y1="104" x2="228" y2="104"/>
		<line style="fill:none;stroke:#00A651;stroke-width:0.1;" x1="-100" y1="96" x2="228" y2="96"/>
		<line style="fill:none;stroke:#00A651;stroke-width:0.1;" x1="-100" y1="96" x2="228" y2="96"/>
		<line style="fill:none;stroke:#00A651;stroke-width:0.1;" x1="-100" y1="88" x2="228" y2="88"/>
		<line style="fill:none;stroke:#00A651;stroke-width:0.1;" x1="-100" y1="88" x2="228" y2="88"/>
		<line style="fill:none;stroke:#00A651;stroke-width:0.1;" x1="-100" y1="80" x2="228" y2="80"/>
		<line style="fill:none;stroke:#00A651;stroke-width:0.1;" x1="-100" y1="80" x2="228" y2="80"/>
		<line style="fill:none;stroke:#00A651;stroke-width:0.1;" x1="-100" y1="72" x2="228" y2="72"/>
		<line style="fill:none;stroke:#00A651;stroke-width:0.1;" x1="-100" y1="72" x2="228" y2="72"/>
		<line style="fill:none;stroke:#00A651;stroke-width:0.1;" x1="-100" y1="64" x2="228" y2="64"/>
		<line style="fill:none;stroke:#00A651;stroke-width:0.1;" x1="-100" y1="64" x2="228" y2="64"/>
		<line style="fill:none;stroke:#00A651;stroke-width:0.1;" x1="-100" y1="56" x2="228" y2="56"/>
		<line style="fill:none;stroke:#00A651;stroke-width:0.1;" x1="-100" y1="56" x2="228" y2="56"/>
		<line style="fill:none;stroke:#00A651;stroke-width:0.1;" x1="-100" y1="48" x2="228" y2="48"/>
		<line style="fill:none;stroke:#00A651;stroke-width:0.1;" x1="-100" y1="48" x2="228" y2="48"/>
		<line style="fill:none;stroke:#00A651;stroke-width:0.1;" x1="-100" y1="40" x2="228" y2="40"/>
		<line style="fill:none;stroke:#00A651;stroke-width:0.1;" x1="-100" y1="40" x2="228" y2="40"/>
		<line style="fill:none;stroke:#00A651;stroke-width:0.1;" x1="-100" y1="32" x2="228" y2="32"/>
		<line style="fill:none;stroke:#00A651;stroke-width:0.1;" x1="-100" y1="32" x2="228" y2="32"/>
		<line style="fill:none;stroke:#00A651;stroke-width:0.1;" x1="-100" y1="24" x2="228" y2="24"/>
		<line style="fill:none;stroke:#00A651;stroke-width:0.1;" x1="-100" y1="24" x2="228" y2="24"/>
		<line style="fill:none;stroke:#00A651;stroke-width:0.1;" x1="-100" y1="16" x2="228" y2="16"/>
		<line style="fill:none;stroke:#00A651;stroke-width:0.1;" x1="-100" y1="16" x2="228" y2="16"/>
		<line style="fill:none;stroke:#00A651;stroke-width:0.1;" x1="-100" y1="8" x2="228" y2="8"/>
		<line style="fill:none;stroke:#00A651;stroke-width:0.1;" x1="-100" y1="8" x2="228" y2="8"/>
		<line style="fill:none;stroke:#00A651;stroke-width:0.1;" x1="-100" y1="0" x2="228" y2="0"/>
		<path id="Border" style="fill:#BBBDBF;" d="M120,0H8H0v8v112v8h8h112h8v-8V8V0H120z M120,120H8V8h112V120z"/>
	</g>
</g>
<g id="Icon">
	<g id="_x30_2_1_">
		<g id="_x30_2">
			
				<ellipse transform="matrix(0.9719 -0.2355 0.2355 0.9719 -13.2716 16.8715)" style="fill:#00A2DE;" cx="64" cy="64" rx="56" ry="56"/>
			<defs>
				<filter id="Adobe_OpacityMaskFilter" filterUnits="userSpaceOnUse" x="12.8" y="45.7" width="85.9" height="74.3">
					<feColorMatrix  type="matrix" values="1 0 0 0 0  0 1 0 0 0  0 0 1 0 0  0 0 0 1 0"/>
				</filter>
			</defs>
			<mask maskUnits="userSpaceOnUse" x="12.8" y="45.7" width="85.9" height="74.3" id="SVGID_1_">
				<g style="filter:url(#Adobe_OpacityMaskFilter);">
					
						<linearGradient id="SVGID_2_" gradientUnits="userSpaceOnUse" x1="-1120.1359" y1="3831.0742" x2="-1120.1359" y2="3954.8176" gradientTransform="matrix(-1.1478 -0.6627 -0.5351 0.9269 851.0524 -4260.999)">
						<stop  offset="0.5483" style="stop-color:#8A8A8A"/>
						<stop  offset="0.5952" style="stop-color:#828282"/>
						<stop  offset="0.6684" style="stop-color:#6C6C6C"/>
						<stop  offset="0.7586" style="stop-color:#484848"/>
						<stop  offset="0.8616" style="stop-color:#161616"/>
						<stop  offset="0.9026" style="stop-color:#000000"/>
					</linearGradient>
					<polygon style="fill:url(#SVGID_2_);" points="122.8,53.1 56.5,167.8 -15.5,126.2 50.7,11.5 					"/>
				</g>
			</mask>
			<path style="mask:url(#SVGID_1_);fill:#0074A1;" d="M97,62l-2.4-11.2l-10.7-4.7l-10.9,7.5L61.6,73.1l1.1-10.9l-4.6-10.6l-8.1-5.9
				l-10.1,1.6l-7.9,5.8L12.8,86.7C21.5,106.3,41.2,120,64,120c5.2,0,10.2-0.7,14.9-2l19.8-34.2l-13.2-1.9L97,62z"/>
			<g id="_x30_2_2_">
				<path style="fill:#FFFFFF;" d="M93.4,66.5c1.2-1.2,2.2-2.4,3-3.6c0.8-1.2,1.4-2.3,1.8-3.5c0.4-1.2,0.6-2.4,0.6-3.9
					c0-1.5-0.3-3-0.9-4.3c-0.6-1.3-1.4-2.5-2.4-3.4c-1-1-2.3-1.7-3.7-2.3c-2.8-1.1-6.5-1-9.2-0.2c-1.3,0.4-2.6,1-3.6,1.7
					c-1.1,0.7-2.1,1.6-3,2.6c-0.9,1-1.8,2.1-2.6,3.4l-0.3,0.5l3,2l0.3-0.4c1.5-2.2,3.1-3.9,4.7-5c1.6-1.1,3.5-1.7,5.8-1.7
					c1,0,2,0.2,3,0.5c1,0.3,1.8,0.8,2.5,1.5c0.7,0.6,1.3,1.4,1.7,2.4c0.4,0.9,0.6,2,0.6,3.1c0,0.9-0.1,1.8-0.4,2.7
					c-0.3,0.9-0.7,1.8-1.3,2.7c-0.6,1-1.5,2-2.5,3.1c-1,1.1-2.3,2.4-3.8,3.8L72.4,80.9v2.9h26.3V80H78.8l10.4-9.4
					C90.8,69.1,92.2,67.7,93.4,66.5z"/>
				<path style="fill:#FFFFFF;" d="M46.8,44.1c-9.6,0-17.5,8.9-17.5,19.9c0,11,7.8,19.9,17.5,19.9c9.6,0,17.5-8.9,17.5-19.9
					C64.3,53,56.4,44.1,46.8,44.1z M60.3,64c0,8.8-6.1,16-13.5,16c-7.5,0-13.5-7.2-13.5-16c0-8.8,6.1-16,13.5-16
					C54.3,48,60.3,55.2,60.3,64z"/>
			</g>
		</g>
	</g>
</g>
</svg>
