<?xml version="1.0" encoding="utf-8"?>
<!-- Generator: Adobe Illustrator 24.0.1, SVG Export Plug-In . SVG Version: 6.00 Build 0)  -->
<svg version="1.1" xmlns="http://www.w3.org/2000/svg" xmlns:xlink="http://www.w3.org/1999/xlink" x="0px" y="0px"
	 viewBox="0 0 128 128" style="enable-background:new 0 0 128 128;" xml:space="preserve">
<g id="Grid_1_" style="display:none;">
	<g id="Grid" style="display:inline;">
		<line style="fill:none;stroke:#00A651;stroke-width:0.1;" x1="128" y1="-100" x2="128" y2="228"/>
		<line style="fill:none;stroke:#00A651;stroke-width:0.1;" x1="120" y1="-100" x2="120" y2="228"/>
		<line style="fill:none;stroke:#00A651;stroke-width:0.1;" x1="120" y1="-100" x2="120" y2="228"/>
		<line style="fill:none;stroke:#00A651;stroke-width:0.1;" x1="112" y1="-100" x2="112" y2="228"/>
		<line style="fill:none;stroke:#00A651;stroke-width:0.1;" x1="112" y1="-100" x2="112" y2="228"/>
		<line style="fill:none;stroke:#00A651;stroke-width:0.1;" x1="104" y1="-100" x2="104" y2="228"/>
		<line style="fill:none;stroke:#00A651;stroke-width:0.1;" x1="104" y1="-100" x2="104" y2="228"/>
		<line style="fill:none;stroke:#00A651;stroke-width:0.1;" x1="96" y1="-100" x2="96" y2="228"/>
		<line style="fill:none;stroke:#00A651;stroke-width:0.1;" x1="96" y1="-100" x2="96" y2="228"/>
		<line style="fill:none;stroke:#00A651;stroke-width:0.1;" x1="88" y1="-100" x2="88" y2="228"/>
		<line style="fill:none;stroke:#00A651;stroke-width:0.1;" x1="88" y1="-100" x2="88" y2="228"/>
		<line style="fill:none;stroke:#00A651;stroke-width:0.1;" x1="80" y1="-100" x2="80" y2="228"/>
		<line style="fill:none;stroke:#00A651;stroke-width:0.1;" x1="80" y1="-100" x2="80" y2="228"/>
		<line style="fill:none;stroke:#00A651;stroke-width:0.1;" x1="72" y1="-100" x2="72" y2="228"/>
		<line style="fill:none;stroke:#00A651;stroke-width:0.1;" x1="72" y1="-100" x2="72" y2="228"/>
		<line style="fill:none;stroke:#00A651;stroke-width:0.1;" x1="64" y1="-100" x2="64" y2="228"/>
		<line style="fill:none;stroke:#00A651;stroke-width:0.1;" x1="64" y1="-100" x2="64" y2="228"/>
		<line style="fill:none;stroke:#00A651;stroke-width:0.1;" x1="56" y1="-100" x2="56" y2="228"/>
		<line style="fill:none;stroke:#00A651;stroke-width:0.1;" x1="56" y1="-100" x2="56" y2="228"/>
		<line style="fill:none;stroke:#00A651;stroke-width:0.1;" x1="48" y1="-100" x2="48" y2="228"/>
		<line style="fill:none;stroke:#00A651;stroke-width:0.1;" x1="48" y1="-100" x2="48" y2="228"/>
		<line style="fill:none;stroke:#00A651;stroke-width:0.1;" x1="40" y1="-100" x2="40" y2="228"/>
		<line style="fill:none;stroke:#00A651;stroke-width:0.1;" x1="40" y1="-100" x2="40" y2="228"/>
		<line style="fill:none;stroke:#00A651;stroke-width:0.1;" x1="32" y1="-100" x2="32" y2="228"/>
		<line style="fill:none;stroke:#00A651;stroke-width:0.1;" x1="32" y1="-100" x2="32" y2="228"/>
		<line style="fill:none;stroke:#00A651;stroke-width:0.1;" x1="24" y1="-100" x2="24" y2="228"/>
		<line style="fill:none;stroke:#00A651;stroke-width:0.1;" x1="24" y1="-100" x2="24" y2="228"/>
		<line style="fill:none;stroke:#00A651;stroke-width:0.1;" x1="16" y1="-100" x2="16" y2="228"/>
		<line style="fill:none;stroke:#00A651;stroke-width:0.1;" x1="16" y1="-100" x2="16" y2="228"/>
		<line style="fill:none;stroke:#00A651;stroke-width:0.1;" x1="8" y1="-100" x2="8" y2="228"/>
		<line style="fill:none;stroke:#00A651;stroke-width:0.1;" x1="8" y1="-100" x2="8" y2="228"/>
		<line style="fill:none;stroke:#00A651;stroke-width:0.1;" x1="0" y1="-100" x2="0" y2="228"/>
		<line style="fill:none;stroke:#00A651;stroke-width:0.1;" x1="-100" y1="128" x2="228" y2="128"/>
		<line style="fill:none;stroke:#00A651;stroke-width:0.1;" x1="-100" y1="120" x2="228" y2="120"/>
		<line style="fill:none;stroke:#00A651;stroke-width:0.1;" x1="-100" y1="120" x2="228" y2="120"/>
		<line style="fill:none;stroke:#00A651;stroke-width:0.1;" x1="-100" y1="112" x2="228" y2="112"/>
		<line style="fill:none;stroke:#00A651;stroke-width:0.1;" x1="-100" y1="112" x2="228" y2="112"/>
		<line style="fill:none;stroke:#00A651;stroke-width:0.1;" x1="-100" y1="104" x2="228" y2="104"/>
		<line style="fill:none;stroke:#00A651;stroke-width:0.1;" x1="-100" y1="104" x2="228" y2="104"/>
		<line style="fill:none;stroke:#00A651;stroke-width:0.1;" x1="-100" y1="96" x2="228" y2="96"/>
		<line style="fill:none;stroke:#00A651;stroke-width:0.1;" x1="-100" y1="96" x2="228" y2="96"/>
		<line style="fill:none;stroke:#00A651;stroke-width:0.1;" x1="-100" y1="88" x2="228" y2="88"/>
		<line style="fill:none;stroke:#00A651;stroke-width:0.1;" x1="-100" y1="88" x2="228" y2="88"/>
		<line style="fill:none;stroke:#00A651;stroke-width:0.1;" x1="-100" y1="80" x2="228" y2="80"/>
		<line style="fill:none;stroke:#00A651;stroke-width:0.1;" x1="-100" y1="80" x2="228" y2="80"/>
		<line style="fill:none;stroke:#00A651;stroke-width:0.1;" x1="-100" y1="72" x2="228" y2="72"/>
		<line style="fill:none;stroke:#00A651;stroke-width:0.1;" x1="-100" y1="72" x2="228" y2="72"/>
		<line style="fill:none;stroke:#00A651;stroke-width:0.1;" x1="-100" y1="64" x2="228" y2="64"/>
		<line style="fill:none;stroke:#00A651;stroke-width:0.1;" x1="-100" y1="64" x2="228" y2="64"/>
		<line style="fill:none;stroke:#00A651;stroke-width:0.1;" x1="-100" y1="56" x2="228" y2="56"/>
		<line style="fill:none;stroke:#00A651;stroke-width:0.1;" x1="-100" y1="56" x2="228" y2="56"/>
		<line style="fill:none;stroke:#00A651;stroke-width:0.1;" x1="-100" y1="48" x2="228" y2="48"/>
		<line style="fill:none;stroke:#00A651;stroke-width:0.1;" x1="-100" y1="48" x2="228" y2="48"/>
		<line style="fill:none;stroke:#00A651;stroke-width:0.1;" x1="-100" y1="40" x2="228" y2="40"/>
		<line style="fill:none;stroke:#00A651;stroke-width:0.1;" x1="-100" y1="40" x2="228" y2="40"/>
		<line style="fill:none;stroke:#00A651;stroke-width:0.1;" x1="-100" y1="32" x2="228" y2="32"/>
		<line style="fill:none;stroke:#00A651;stroke-width:0.1;" x1="-100" y1="32" x2="228" y2="32"/>
		<line style="fill:none;stroke:#00A651;stroke-width:0.1;" x1="-100" y1="24" x2="228" y2="24"/>
		<line style="fill:none;stroke:#00A651;stroke-width:0.1;" x1="-100" y1="24" x2="228" y2="24"/>
		<line style="fill:none;stroke:#00A651;stroke-width:0.1;" x1="-100" y1="16" x2="228" y2="16"/>
		<line style="fill:none;stroke:#00A651;stroke-width:0.1;" x1="-100" y1="16" x2="228" y2="16"/>
		<line style="fill:none;stroke:#00A651;stroke-width:0.1;" x1="-100" y1="8" x2="228" y2="8"/>
		<line style="fill:none;stroke:#00A651;stroke-width:0.1;" x1="-100" y1="8" x2="228" y2="8"/>
		<line style="fill:none;stroke:#00A651;stroke-width:0.1;" x1="-100" y1="0" x2="228" y2="0"/>
		<path id="Border" style="fill:#BBBDBF;" d="M120,0H8H0v8v112v8h8h112h8v-8V8V0H120z M120,120H8V8h112V120z"/>
	</g>
</g>
<g id="Icon">
	<g id="_x30_3_1_">
		<g id="_x30_3">
			
				<ellipse transform="matrix(0.9861 -0.1664 0.1664 0.9861 -9.7561 11.5401)" style="fill:#00D1D1;" cx="64" cy="64" rx="56" ry="56"/>
			<defs>
				<filter id="Adobe_OpacityMaskFilter" filterUnits="userSpaceOnUse" x="12.2" y="44.7" width="86.7" height="75.3">
					<feColorMatrix  type="matrix" values="1 0 0 0 0  0 1 0 0 0  0 0 1 0 0  0 0 0 1 0"/>
				</filter>
			</defs>
			<mask maskUnits="userSpaceOnUse" x="12.2" y="44.7" width="86.7" height="75.3" id="SVGID_1_">
				<g style="filter:url(#Adobe_OpacityMaskFilter);">
					
						<linearGradient id="SVGID_2_" gradientUnits="userSpaceOnUse" x1="-1119.2576" y1="3831.6328" x2="-1119.2576" y2="3955.3762" gradientTransform="matrix(-1.1478 -0.6627 -0.5351 0.9269 851.0524 -4260.999)">
						<stop  offset="0.5483" style="stop-color:#8A8A8A"/>
						<stop  offset="0.5952" style="stop-color:#828282"/>
						<stop  offset="0.6684" style="stop-color:#6C6C6C"/>
						<stop  offset="0.7586" style="stop-color:#484848"/>
						<stop  offset="0.8616" style="stop-color:#161616"/>
						<stop  offset="0.9026" style="stop-color:#000000"/>
					</linearGradient>
					<polygon style="fill:url(#SVGID_2_);" points="121.5,53.1 55.2,167.8 -16.8,126.2 49.4,11.5 					"/>
				</g>
			</mask>
			<path style="mask:url(#SVGID_1_);fill:#009999;" d="M85.3,47l-12.5-2.3L61.2,64.8l0.3-2.6l-4.6-10.6l-8.1-5.9l-10.1,1.6L30.9,53
				L12.2,85.4C20.6,105.7,40.6,120,64,120c3.5,0,7-0.3,10.3-1l23.8-41.3l-3.9-12.4l-4.7-1.5L99,47.5L85.3,47z"/>
			<g id="_x30_3_2_">
				<path style="fill:#FFFFFF;" d="M95.4,64.2c-1.2-0.9-2.7-1.6-4.4-2.1c-1.3-0.4-2.7-0.7-4.1-0.8l11.9-13.7l0.1-0.2v-2.7H72.8v3.7
					h20.6L81.1,62.6l1,2.2h2.4c1.6,0,3.1,0.2,4.5,0.5c1.4,0.3,2.5,0.8,3.5,1.5c1,0.6,1.7,1.4,2.3,2.4c0.5,0.9,0.8,2,0.8,3.3
					c0,1.2-0.2,2.2-0.7,3.1c-0.5,0.9-1.1,1.8-1.9,2.4c-0.8,0.7-1.7,1.2-2.8,1.6c-1.1,0.4-2.2,0.6-3.4,0.6c-2.4,0-4.5-0.5-6.3-1.5
					c-1.8-1-3.5-2.4-4.9-4.3L75.3,74l-3,2.5l0.3,0.4c1.6,2,3.5,3.7,5.9,5c2.4,1.3,5.1,1.9,8.3,1.9c1.7,0,3.3-0.3,4.8-0.8
					c1.5-0.5,2.9-1.3,4.1-2.3c1.2-1,2.1-2.2,2.8-3.6c0.7-1.4,1-3,1-4.8c0-1.8-0.4-3.4-1.1-4.7C97.7,66.2,96.6,65.1,95.4,64.2z"/>
				<path style="fill:#FFFFFF;" d="M45.5,44C35.9,44,28,53,28,63.9c0,11,7.8,19.9,17.5,19.9c9.6,0,17.5-8.9,17.5-19.9
					C63,53,55.1,44,45.5,44z M59,63.9c0,8.8-6.1,16-13.5,16c-7.5,0-13.5-7.2-13.5-16S38,48,45.5,48C53,48,59,55.1,59,63.9z"/>
			</g>
		</g>
	</g>
</g>
</svg>
